# xmcd CD database file
#
# Track frame offsets:
#	183
#	19190
#	48210
#	64908
#	84958
#	101843
#	119448
#	143123
#	160975
#	182603
#	204223
#
# Disc length: 3017 seconds
#
# Revision: 31
# Processed by: cddbd v1.5.2PL0 Copyright (c) Steve Scherf et al.
# Submitted via: CDex 2.04
#
DISCID=8e0bc70b
DTITLE=The Jeff Healey Band - Hell to pay
DYEAR=2011
DGENRE=Blues
TTITLE0=Full Circle
TTITLE1=I Think I Love You Too Much
TTITLE2=I Can't Get My Hands On You
TTITLE3=How Long Can A Man Be Strong
TTITLE4=Let It All Go
TTITLE5=Hell To Pay
TTITLE6=While My Guitar Gently Weeps
TTITLE7=Something To Hold On To
TTITLE8=How Much
TTITLE9=Highway Of Dreams
TTITLE10=Life Beyond The Sky
EXTD=YEAR: 2011
EXTT0=
EXTT1=
EXTT2=
EXTT3=
EXTT4=
EXTT5=
EXTT6=
EXTT7=
EXTT8=
EXTT9=
EXTT10=
PLAYORDER=
